<mxfile host="app.diagrams.net" modified="2024-05-30T04:02:26.918Z" agent="Mozilla/5.0 (Windows NT 10.0; Win64; x64) AppleWebKit/537.36 (KHTML, like Gecko) Chrome/124.0.0.0 Safari/537.36" version="24.4.10" etag="cyKhGxQ116cM5IMJCXaJ" type="github">
  <diagram name="Page-1" id="NY7v5nL1lWAJqryCJquK">
    <mxGraphModel>
      <root>
        <mxCell id="0" />
        <mxCell id="1" parent="0" />
      </root>
    </mxGraphModel>
  </diagram>
</mxfile>
